<svg viewBox="0 -2 453.82063 453" xmlns="http://www.w3.org/2000/svg">
	<g fill="#305c1e" class="svg-leaves">
		<path d="m427.339844 159.105469 26.480468-22.695313-40.535156-13.511718c-17.589844-5.855469-36.855468-3.785157-52.800781 5.671874l7.199219 43.199219c20.746094 6.152344 43.199218 1.386719 59.65625-12.664062zm0 0"/>
		<path d="m356.003906 114.410156c35.675782-19.703125 57.824219-57.242187 57.816406-98v-16c-50.519531.015625-94.769531 33.867188-108 82.625"/>
		<path d="m301.820312 336.410156c0 61.855469 50.144532 112 112 112v-16c-.019531-56.152344-41.648437-103.597656-97.320312-110.929687"/>
		<path d="m329.1875 297.675781 25.921875 19.078125c16.75 12.328125 38.445313 15.746094 58.175781 9.167969l40.535156-13.511719-26.480468-22.695312c-18.140625-15.554688-43.4375-19.703125-65.597656-10.761719l-29.074219 11.722656"/>
	</g>
	<g fill="#294f1a" class="svg-leaf-detail">
		<path d="m341.15625 69.289062 45.496094-51.917968c2.914062-3.324219 7.964844-3.65625 11.289062-.742188 3.324219 2.910156 3.65625 7.964844.742188 11.285156l-45.496094 51.917969c-2.910156 3.324219-7.964844 3.65625-11.289062.746094-3.320313-2.914063-3.652344-7.964844-.742188-11.289063zm0 0"/>
		<path d="m346.1875 372.371094c3.328125-2.910156 8.386719-2.574219 11.296875.753906l45.496094 51.988281c2.914062 3.324219 2.574219 8.382813-.75 11.292969-3.328125 2.914062-8.386719 2.578125-11.296875-.75l-45.496094-51.988281c-2.914062-3.328125-2.578125-8.382813.75-11.296875zm0 0"/>
	</g>
	<path class="svg-rose" d="m372.539062 200.714844-12.847656-77.066406c-1.183594-7.113282-5.503906-13.316407-11.765625-16.894532l-38.953125-22.253906c-4.632812-2.648438-10.019531-3.675781-15.304687-2.921875l-47.847657 6.832031-32-8-30.007812-24c-5.84375-4.679687-14.15625-4.679687-20 0l-24.800781 19.855469c-3.3125 2.652344-7.542969 3.882813-11.757813 3.417969l-47.648437-5.296875c-4.527344-.507813-9.050781.9375-12.449219 3.96875-3.394531 3.035156-5.335938 7.375-5.335938 11.925781v6.128906l-39.671874 51c-9.90625 12.730469-11.246094 30.148438-3.40625 44.25l1.71875 3.101563-15.199219 26.3125c-4.058594 5.070312-5.886719 11.570312-5.070313 18.015625.816406 6.441406 4.210938 12.277344 9.40625 16.175781l44.222656 33.144531s-24 72 56 104 112-24 112-24l-.136718-.113281c.609375 0 1.226562 0 1.824218-.125l46.402344-6.632813c5.148438-.726562 9.921875-3.105468 13.597656-6.785156l31.59375-31.589844c1.820313-1.824218 3.339844-3.929687 4.496094-6.234374l50.765625-101.535157c2.253907-4.542969 3.015625-9.679687 2.175781-14.679687zm0 0" fill="#bd0000"/>
	<g fill="#a30000" class="svg-rose-detail">
		<path d="m256.597656 131.945312-26.863281-16.109374c-3.730469-2.242188-7.996094-3.421876-12.347656-3.425782h-20.933594c-6.371094-.019531-12.484375 2.511719-16.976563 7.03125l-11.3125 11.3125c-2.433593 2.433594-3.039062 6.152344-1.503906 9.230469l3.878906 7.753906-10.046874 3.34375c-5.054688 1.699219-9.40625 5.023438-12.375 9.457031l-4.5625 6.839844c-7.054688 10.605469-4.597657 24.878906 5.601562 32.511719l14.167969 10.625c5.460937 4.09375 12.410156 5.671875 19.105469 4.335937l62.152343-12.433593c9.757813-1.992188 17.289063-9.785157 18.941407-19.609375l4.402343-26.398438c1.628907-9.710937-2.871093-19.425781-11.328125-24.464844zm-4.457031 21.898438-4.390625 26.398438c-.5625 3.273437-3.074219 5.867187-6.328125 6.527343l-62.152344 12.433594c-2.242187.445313-4.566406-.078125-6.402343-1.441406l-14.167969-10.632813c-3.398438-2.542968-4.21875-7.304687-1.863281-10.839844l4.5625-6.832031c.988281-1.476562 2.441406-2.585937 4.125-3.152343l8.65625-2.886719c1.945312 11.953125 15.058593 20.992187 31.640624 20.992187 17.945313 0 32-10.542968 32-24 0-13.457031-14.054687-24-32-24-7.148437-.082031-14.179687 1.808594-20.320312 5.472656l-1.945312-3.898437 7.203124-7.199219c1.503907-1.519531 3.554688-2.375 5.695313-2.375h20.933594c1.453125 0 2.875.394532 4.113281 1.144532l26.863281 16.113281c2.820313 1.6875 4.316407 4.933593 3.777344 8.175781zm-62.320313 6.566406c0-3.265625 6.230469-8 16-8 9.769532 0 16 4.734375 16 8s-6.230468 8-16 8c-9.769531 0-16-4.734375-16-8zm0 0"/>
		<path d="m250.539062 234.808594c-10.679687.007812-20.734374-5.035156-27.117187-13.597656 0 0 22.199219-2.066407 28.375-2.464844 6.078125-.363282 11.542969-3.832032 14.457031-9.183594l.183594-.335938c10.957031-19.765624 17.675781-41.601562 19.71875-64.113281.527344-5.726562.992188-9.941406.992188-9.941406 5.613281 12.699219 10.421874 25.738281 14.398437 39.039063.585937 2.039062.335937 4.230468-.695313 6.085937l-20.632812 37.035156c-5.566406 10.066407-15.871094 16.609375-27.351562 17.375-.765626.054688-1.550782.101563-2.328126.101563zm0 0"/>
		<path d="m265.996094 253.746094c-21.265625 26.871094-58.765625 34.585937-88.910156 18.289062-27.828126-15.113281-53.992188-33.113281-78.058594-53.695312-45.070313-38.632813-40.101563-64.800782-37.984375-76 .382812-1.734375.640625-3.488282.777343-5.257813 5.40625-9.164062 12.089844-17.515625 19.847657-24.800781 2.792969-3.003906 7.398437-3.433594 10.695312-.992188l11.664063 8.746094c-6.921875 6.15625-10.679688 15.121094-10.207032 24.375 0 34.273438 24.550782 67.40625 25.601563 68.800782.40625.539062.875 1.023437 1.398437 1.449218l40 32c.441407.351563.917969.65625 1.425782.910156 1.375.679688 33.972656 16.839844 59.574218 16.839844 29.894532 0 39.367188-36.503906 39.761719-38.054687 0 0-22.496093 22.054687-39.761719 22.054687-19.902343 0-46.945312-12.519531-51.695312-14.808594l-38.457031-30.792968c-3.449219-4.855469-21.847657-32.101563-21.847657-58.398438-.417968-4.648437 1.359376-9.230468 4.800782-12.382812 5.023437-3.320313 10.992187-4.902344 17-4.511719-3.796875 7.75-5.78125 16.261719-5.800782 24.894531 8.585938-.074218 16.175782-5.597656 18.886719-13.742187 5.585938-14.144531 12.578125-27.6875 20.867188-40.433594-8.796875 2.761719-16.789063 7.628906-23.28125 14.175781-7.1875-1.1875-14.523438-1.144531-21.695313.128906l-18.648437-13.992187c-9.800781-7.355469-23.570313-6.144531-31.9375 2.808594-22.320313 24-24.191407 30.6875-24.191407 35.046875-.105468 1.003906-.273437 2-.496093 2.984375-2.398438 12.710937-8.800781 46.480469 43.289062 91.136719 46.304688 39.6875 108.121094 74.175781 131.0625 74.175781 1.742188.054687 3.480469-.214844 5.121094-.800781 44.511719-17.886719 45.023437-53.960938 45.023437-55.488282-1.183593 1.84375-2.457031 3.625-3.824218 5.335938zm0 0"/>
		<path d="m284.859375 277.128906s17.929687-34.351562 18.3125-36.285156l6.648437-33.027344c.207032-.980468.476563-1.945312.800782-2.894531l13.105468-39.3125c.8125-2.433594.414063-5.113281-1.082031-7.199219 0 0-34.480469-46-37.054687-46l-23.769532-16h23.769532c7.746094.011719 15.015625 3.75 19.527344 10.046875l30.480468 42.671875c4.4375 6.261719 5.628906 14.265625 3.199219 21.546875l-13.070313 39.335938c-.105468.308593-.191406.628906-.25.949219l-6.617187 33.042968c-1.15625 5.785156-4.40625 10.945313-9.125 14.488282zm0 0"/>
		<path d="m189.820312 336.410156c-3.351562 0-13.535156 0-104.648437-29.335937-22.96875-6.839844-37.359375-29.585938-33.703125-53.273438 1.433594-7.445312.203125-15.15625-3.472656-21.789062l-15.777344-28.464844 17.441406 12.101563c12.339844 8.175781 19.285156 22.386718 18.152344 37.144531-.105469.984375-.238281 1.960937-.40625 2.9375-2.597656 15.738281 6.722656 31 21.910156 35.878906 41.53125 14.195313 84.046875 25.332031 127.199219 33.328125-7.582031 6.359375-16.863281 10.347656-26.695313 11.472656zm0 0"/>
	</g>
</svg>